<svg id="svg" xmlns="http://www.w3.org/2000/svg" xmlns:xlink="http://www.w3.org/1999/xlink" width="400" height="400" viewBox="0, 0, 400,400"><g id="svgg"><path id="path0" d="M199.726 14.977 C 198.805 15.265,196.645 16.309,194.926 17.296 C 191.491 19.270,158.470 37.202,119.600 58.202 C 42.319 99.954,42.495 99.851,40.222 104.536 C 37.613 109.913,37.800 102.499,37.800 200.400 L 37.800 289.000 38.857 292.098 C 41.674 300.354,42.968 301.364,67.200 314.205 C 70.170 315.778,78.540 320.310,85.800 324.275 C 93.060 328.241,102.960 333.610,107.800 336.207 C 112.640 338.805,124.970 345.514,135.200 351.116 C 169.743 370.033,186.544 379.062,196.388 383.996 C 202.486 387.053,204.525 386.725,214.521 381.080 C 217.424 379.440,251.300 361.038,289.800 340.187 C 328.300 319.336,360.446 301.772,361.235 301.156 C 363.802 299.152,365.949 294.127,366.781 288.174 C 367.630 282.101,367.326 115.526,366.459 111.396 C 364.934 104.138,361.416 99.223,355.600 96.226 C 352.053 94.398,216.340 20.880,210.800 17.785 C 205.178 14.645,202.754 14.030,199.726 14.977 M225.506 61.240 C 259.554 79.628,348.084 127.637,349.100 128.263 L 350.000 128.818 349.995 200.509 L 349.990 272.200 341.095 276.967 C 336.203 279.588,315.640 290.766,295.400 301.807 C 253.399 324.718,237.300 333.416,221.400 341.788 C 215.240 345.031,208.384 348.643,206.165 349.815 L 202.129 351.946 195.365 348.317 C 191.644 346.321,169.790 334.477,146.800 321.997 C 123.810 309.517,98.520 295.843,90.600 291.611 C 82.680 287.379,72.420 281.790,67.800 279.193 C 63.180 276.595,58.365 273.966,57.099 273.351 L 54.798 272.232 54.899 200.429 L 55.000 128.625 75.200 117.685 C 86.310 111.669,117.090 94.989,143.600 80.619 C 190.555 55.166,201.666 49.264,202.706 49.221 C 202.985 49.209,213.245 54.618,225.506 61.240 M191.288 107.231 C 188.262 108.426,184.800 111.770,183.360 114.887 L 182.200 117.400 182.085 141.102 L 181.970 164.804 178.685 162.130 C 161.223 147.913,141.508 143.860,121.012 150.274 C 76.529 164.194,71.349 232.163,113.126 253.740 C 133.745 264.389,157.968 259.671,179.087 240.893 L 181.973 238.326 182.087 259.863 L 182.200 281.400 183.319 283.800 C 188.951 295.875,205.855 295.425,210.878 283.067 C 211.481 281.582,211.558 279.268,211.578 261.849 L 211.600 242.298 214.500 245.051 C 234.600 264.130,261.227 270.885,284.275 262.751 C 305.030 255.427,319.001 236.938,322.196 212.569 C 327.493 172.159,303.157 142.231,265.000 142.231 C 245.989 142.231,231.288 148.650,215.007 164.062 L 211.623 167.265 211.511 141.933 L 211.400 116.600 210.272 114.458 C 206.795 107.855,198.093 104.543,191.288 107.231 M271.800 164.998 C 289.619 168.745,300.417 182.851,300.395 202.352 C 300.357 235.478,265.346 250.161,236.961 228.956 C 230.412 224.064,223.194 216.748,215.228 206.928 L 211.600 202.457 211.600 199.998 C 211.600 197.555,211.619 197.515,214.570 193.664 C 232.437 170.355,251.609 160.752,271.800 164.998 M146.213 175.603 C 155.662 178.020,165.422 184.777,174.657 195.296 C 184.647 206.673,184.638 207.162,174.253 218.800 C 152.938 242.686,122.787 243.737,111.127 221.000 C 97.743 194.901,118.195 168.438,146.213 175.603 " stroke="none" fill="#000000" fill-rule="evenodd"></path></g></svg>